
<svg version="1.1" xmlns="http://www.w3.org/2000/svg" width="64" height="64" viewBox="0 0 64 64">
<path d="M0 0 C2.91259766 1.23754883 2.91259766 1.23754883 5.9140625 2.95703125 C7.00460938 3.57513672 8.09515625 4.19324219 9.21875 4.83007812 C10.3428125 5.48427734 11.466875 6.13847656 12.625 6.8125 C14.32269531 7.77639648 14.32269531 7.77639648 16.0546875 8.75976562 C26.69040573 14.84001923 26.69040573 14.84001923 29 17 C29 18.32 29 19.64 29 21 C26.5 23.25 26.5 23.25 24 25 C25.65 25.99 27.3 26.98 29 28 C28.64950425 31.24208567 28.43778819 32.61527704 25.9375 34.8125 C24.9784375 35.4003125 24.9784375 35.4003125 24 36 C25.65 36.99 27.3 37.98 29 39 C28.80957031 41.29833984 28.80957031 41.29833984 28 44 C25.85449219 45.71337891 25.85449219 45.71337891 23.046875 47.2265625 C21.52900391 48.061875 21.52900391 48.061875 19.98046875 48.9140625 C18.91441406 49.47867188 17.84835938 50.04328125 16.75 50.625 C14.66136839 51.76285575 12.57282375 52.90087116 10.484375 54.0390625 C9.08783691 54.78470459 9.08783691 54.78470459 7.66308594 55.54541016 C4.98057794 56.95354721 4.98057794 56.95354721 2.53222656 58.68505859 C-0.61643142 60.32010216 -2.48882506 60.41367942 -6 60 C-8.69726562 58.87011719 -8.69726562 58.87011719 -11.40625 57.296875 C-12.39753906 56.72839844 -13.38882812 56.15992188 -14.41015625 55.57421875 C-15.42980469 54.97222656 -16.44945313 54.37023438 -17.5 53.75 C-18.51964844 53.16347656 -19.53929687 52.57695313 -20.58984375 51.97265625 C-23.40953601 50.34097477 -26.20673307 48.67638727 -29 47 C-29.67804687 46.61263672 -30.35609375 46.22527344 -31.0546875 45.82617188 C-32.71875 44.828125 -32.71875 44.828125 -35 43 C-35 41.68 -35 40.36 -35 39 C-32.5 36.75 -32.5 36.75 -30 35 C-31.65 34.01 -33.3 33.02 -35 32 C-34.64950425 28.75791433 -34.43778819 27.38472296 -31.9375 25.1875 C-31.298125 24.795625 -30.65875 24.40375 -30 24 C-31.65 23.01 -33.3 22.02 -35 21 C-34.80957031 18.70166016 -34.80957031 18.70166016 -34 16 C-31.85449219 14.28662109 -31.85449219 14.28662109 -29.046875 12.7734375 C-27.52900391 11.938125 -27.52900391 11.938125 -25.98046875 11.0859375 C-24.91441406 10.52132813 -23.84835938 9.95671875 -22.75 9.375 C-20.66136839 8.23714425 -18.57282375 7.09912884 -16.484375 5.9609375 C-15.55334961 5.46384277 -14.62232422 4.96674805 -13.66308594 4.45458984 C-10.98057794 3.04645279 -10.98057794 3.04645279 -8.53222656 1.31494141 C-5.36916501 -0.32758168 -3.52886595 -0.42976526 0 0 Z " fill="#F8CDD8" transform="translate(35,2)"/>
<path d="M0 0 C2.91259766 1.23754883 2.91259766 1.23754883 5.9140625 2.95703125 C7.00460938 3.57513672 8.09515625 4.19324219 9.21875 4.83007812 C10.3428125 5.48427734 11.466875 6.13847656 12.625 6.8125 C14.32269531 7.77639648 14.32269531 7.77639648 16.0546875 8.75976562 C26.69040573 14.84001923 26.69040573 14.84001923 29 17 C29 18.32 29 19.64 29 21 C3.97673121 36.09828681 3.97673121 36.09828681 -9.92871094 33.5546875 C-16.20842801 31.87299052 -21.55656054 28.44072651 -27 25 C-28.63319423 24.14216061 -30.27657361 23.30282957 -31.9375 22.5 C-32.948125 22.005 -33.95875 21.51 -35 21 C-34.80957031 18.70166016 -34.80957031 18.70166016 -34 16 C-31.85449219 14.28662109 -31.85449219 14.28662109 -29.046875 12.7734375 C-27.52900391 11.938125 -27.52900391 11.938125 -25.98046875 11.0859375 C-24.91441406 10.52132813 -23.84835938 9.95671875 -22.75 9.375 C-20.66136839 8.23714425 -18.57282375 7.09912884 -16.484375 5.9609375 C-15.55334961 5.46384277 -14.62232422 4.96674805 -13.66308594 4.45458984 C-10.98057794 3.04645279 -10.98057794 3.04645279 -8.53222656 1.31494141 C-5.36916501 -0.32758168 -3.52886595 -0.42976526 0 0 Z " fill="#83F4D2" transform="translate(35,2)"/>
<path d="M0 0 C2.40014648 1.13330078 2.40014648 1.13330078 4.87109375 2.6953125 C5.77537109 3.24574219 6.67964844 3.79617187 7.61132812 4.36328125 C9.4961512 5.53820206 11.37638479 6.72051749 13.25195312 7.91015625 C18.33776001 11.17594275 18.33776001 11.17594275 24.1328125 11.69140625 C28.69241122 9.00161572 33.20926333 6.27620391 37.63476562 3.36914062 C41.39054398 1.03738605 43.31880543 -0.01313979 47.84765625 0.07421875 C51 1 51 1 54 3 C53.80957031 5.29833984 53.80957031 5.29833984 53 8 C50.85449219 9.71337891 50.85449219 9.71337891 48.046875 11.2265625 C47.03496094 11.7834375 46.02304687 12.3403125 44.98046875 12.9140625 C43.91441406 13.47867188 42.84835938 14.04328125 41.75 14.625 C39.66136839 15.76285575 37.57282375 16.90087116 35.484375 18.0390625 C34.55334961 18.53615723 33.62232422 19.03325195 32.66308594 19.54541016 C29.98057794 20.95354721 29.98057794 20.95354721 27.53222656 22.68505859 C24.38356858 24.32010216 22.51117494 24.41367942 19 24 C16.30273438 22.87011719 16.30273438 22.87011719 13.59375 21.296875 C12.60246094 20.72839844 11.61117188 20.15992187 10.58984375 19.57421875 C9.57019531 18.97222656 8.55054687 18.37023437 7.5 17.75 C6.48035156 17.16347656 5.46070313 16.57695313 4.41015625 15.97265625 C1.59046399 14.34097477 -1.20673307 12.67638727 -4 11 C-5.01707031 10.41895508 -5.01707031 10.41895508 -6.0546875 9.82617188 C-7.71875 8.828125 -7.71875 8.828125 -10 7 C-10 5.68 -10 4.36 -10 3 C-6.63636192 0.30908954 -4.24069697 -0.3977992 0 0 Z " fill="#FE2E88" transform="translate(10,38)"/>
<path d="M0 0 C3.81206249 0.28254176 5.90774133 1.29007122 9.22119141 3.16699219 C10.31173828 3.78058594 11.40228516 4.39417969 12.52587891 5.02636719 C13.64994141 5.67605469 14.77400391 6.32574219 15.93212891 6.99511719 C17.62982422 7.94644531 17.62982422 7.94644531 19.36181641 8.91699219 C24.2171605 11.67832532 28.49180924 14.11194847 32.30712891 18.24511719 C29.22411475 18.36155874 26.14166767 18.43244151 23.05712891 18.49511719 C21.74808594 18.54539062 21.74808594 18.54539062 20.41259766 18.59667969 C13.86698338 18.69661273 13.86698338 18.69661273 10.88525391 16.29199219 C10.10408203 15.27878906 10.10408203 15.27878906 9.30712891 14.24511719 C8.31712891 13.91511719 7.32712891 13.58511719 6.30712891 13.24511719 C6.96712891 15.55511719 7.62712891 17.86511719 8.30712891 20.24511719 C6.32712891 20.24511719 4.34712891 20.24511719 2.30712891 20.24511719 C2.30712891 18.26511719 2.30712891 16.28511719 2.30712891 14.24511719 C1.23462891 14.43074219 0.16212891 14.61636719 -0.94287109 14.80761719 C-4.69287109 15.24511719 -4.69287109 15.24511719 -6.88037109 14.55761719 C-7.77755859 14.40292969 -7.77755859 14.40292969 -8.69287109 14.24511719 C-9.18916016 14.89351562 -9.68544922 15.54191406 -10.19677734 16.20996094 C-14.01592611 19.32385218 -17.67604115 18.67818599 -22.44287109 18.49511719 C-23.33103516 18.47707031 -24.21919922 18.45902344 -25.13427734 18.44042969 C-27.32157958 18.39339093 -29.50666926 18.32768727 -31.69287109 18.24511719 C-28.76895554 15.05464369 -25.90516571 13.0649956 -22.08740234 11.04589844 C-21.02199219 10.47677734 -19.95658203 9.90765625 -18.85888672 9.32128906 C-17.75222656 8.73927734 -16.64556641 8.15726563 -15.50537109 7.55761719 C-13.30281612 6.3884223 -11.10095368 5.21792152 -8.89990234 4.04589844 C-7.92512939 3.53196533 -6.95035645 3.01803223 -5.94604492 2.48852539 C-1.72036624 0.15659544 -1.72036624 0.15659544 0 0 Z " fill="#24EDB2" transform="translate(31.69287109375,1.7548828125)"/>
<path d="M0 0 C2.35005084 0.42910217 2.35005084 0.42910217 6.03515625 0.32421875 C5.70515625 2.30421875 5.37515625 4.28421875 5.03515625 6.32421875 C7.01515625 6.32421875 8.99515625 6.32421875 11.03515625 6.32421875 C10.37515625 5.33421875 9.71515625 4.34421875 9.03515625 3.32421875 C9.03515625 2.00421875 9.03515625 0.68421875 9.03515625 -0.67578125 C11.39479898 -0.2689463 12.89449713 0.22236214 14.84765625 1.63671875 C16.03515625 3.32421875 16.03515625 3.32421875 15.91015625 5.32421875 C14.28179413 9.0461893 11.75495719 10.86353152 8.03515625 12.32421875 C4.58203125 12.51953125 4.58203125 12.51953125 0.78515625 12.44921875 C-0.478125 12.43117188 -1.74140625 12.413125 -3.04296875 12.39453125 C-4.0071875 12.37132812 -4.97140625 12.348125 -5.96484375 12.32421875 C-6.25359375 11.70546875 -6.54234375 11.08671875 -6.83984375 10.44921875 C-7.90204417 8.1909611 -7.90204417 8.1909611 -9.96484375 6.32421875 C-9.74072824 4.00835848 -9.07537444 2.5127711 -7.90234375 0.51171875 C-5.1881679 -1.15180838 -3.03226831 -0.54335444 0 0 Z " fill="#7FF2D0" transform="translate(28.96484375,15.67578125)"/>
<path d="M0 0 C11.22 0 22.44 0 34 0 C27.96838071 4.52371447 24.64243588 5.36292086 17.25 5.375 C16.08984375 5.41173828 16.08984375 5.41173828 14.90625 5.44921875 C8.92999107 5.47930059 5.16712439 3.98466317 0 1 C0 0.67 0 0.34 0 0 Z " fill="#9FEBD6" transform="translate(15,30)"/>
<path d="M0 0 C0.99 0.66 1.98 1.32 3 2 C2.67 3.65 2.34 5.3 2 7 C-4.93 7 -11.86 7 -19 7 C-7.66906475 -2.0647482 -7.66906475 -2.0647482 0 0 Z " fill="#ED6DA6" transform="translate(61,39)"/>
<path d="M0 0 C3.11328125 1.49609375 3.11328125 1.49609375 6.3125 3.4375 C7.38113281 4.07558594 8.44976563 4.71367188 9.55078125 5.37109375 C10.76314453 6.17740234 10.76314453 6.17740234 12 7 C12 7.33 12 7.66 12 8 C5.07 8 -1.86 8 -9 8 C-9.33 6.35 -9.66 4.7 -10 3 C-6.44413634 0.56169349 -4.30752641 -0.488929 0 0 Z " fill="#ED6DA6" transform="translate(10,38)"/>
<path d="M0 0 C6.27 0 12.54 0 19 0 C19 0.99 19 1.98 19 3 C14.72545019 6.67491357 10.51200459 6.36156176 5.1875 6.1875 C4.39923828 6.17396484 3.61097656 6.16042969 2.79882812 6.14648438 C0.86558831 6.11133456 -1.06729682 6.05753361 -3 6 C-2 4 -1 2 0 0 Z " fill="#56F1C3" transform="translate(45,20)"/>
<path d="M0 0 C3.10385211 -0.11613204 6.20714662 -0.18722029 9.3125 -0.25 C10.19357422 -0.28351562 11.07464844 -0.31703125 11.98242188 -0.3515625 C18.49812787 -0.45066069 18.49812787 -0.45066069 21.10546875 1.890625 C22 4 22 4 22 6 C19.27022936 6.08126109 16.5428983 6.14061663 13.8125 6.1875 C13.04357422 6.21263672 12.27464844 6.23777344 11.48242188 6.26367188 C6.87625719 6.32297872 3.66053404 6.14703227 0 3 C0 2.01 0 1.02 0 0 Z " fill="#56F1C3" transform="translate(0,20)"/>
<path d="M0 0 C1.46469727 0.01933594 1.46469727 0.01933594 2.95898438 0.0390625 C3.96638672 0.07257812 4.97378906 0.10609375 6.01171875 0.140625 C7.55182617 0.16769531 7.55182617 0.16769531 9.12304688 0.1953125 C11.6493976 0.24231437 14.17382344 0.30800228 16.69921875 0.390625 C13.52371693 2.85509054 10.33156931 4.65700314 6.69921875 6.390625 C6.69921875 5.730625 6.69921875 5.070625 6.69921875 4.390625 C1.08921875 4.390625 -4.52078125 4.390625 -10.30078125 4.390625 C-4.67578125 -0.109375 -4.67578125 -0.109375 0 0 Z " fill="#FE4A9A" transform="translate(45.30078125,45.609375)"/>
<path d="M0 0 C3.3956697 -0.08745946 6.79104773 -0.14054444 10.1875 -0.1875 C11.14720703 -0.21263672 12.10691406 -0.23777344 13.09570312 -0.26367188 C22.05151061 -0.35663873 22.05151061 -0.35663873 26 3 C26 3.33 26 3.66 26 4 C22.979458 4.27761225 19.96189979 4.52266855 16.9375 4.75 C16.08994141 4.83121094 15.24238281 4.91242187 14.36914062 4.99609375 C8.25760212 5.42083388 5.03053842 4.52205946 0 1 C0 0.67 0 0.34 0 0 Z " fill="#FE4C98" transform="translate(3,46)"/>
<path d="M0 0 C3.12482562 -0.08687496 6.24934246 -0.14034568 9.375 -0.1875 C10.70917969 -0.22520508 10.70917969 -0.22520508 12.0703125 -0.26367188 C13.34648438 -0.27817383 13.34648438 -0.27817383 14.6484375 -0.29296875 C15.82672119 -0.31653442 15.82672119 -0.31653442 17.02880859 -0.34057617 C17.67930176 -0.22818604 18.32979492 -0.1157959 19 0 C19.66 0.99 20.32 1.98 21 3 C17.87517438 3.08687496 14.75065754 3.14034568 11.625 3.1875 C10.29082031 3.22520508 10.29082031 3.22520508 8.9296875 3.26367188 C7.65351562 3.27817383 7.65351562 3.27817383 6.3515625 3.29296875 C5.17327881 3.31653442 5.17327881 3.31653442 3.97119141 3.34057617 C3.32069824 3.22818604 2.67020508 3.1157959 2 3 C1.34 2.01 0.68 1.02 0 0 Z " fill="#3DEFBB" transform="translate(43,17)"/>
<path d="M0 0 C0.69287109 0.00451172 1.38574219 0.00902344 2.09960938 0.01367188 C3.79561068 0.02536844 5.49156703 0.04330076 7.1875 0.0625 C6.1975 1.5475 6.1975 1.5475 5.1875 3.0625 C3.21630859 3.40307617 3.21630859 3.40307617 0.8359375 3.35546875 C-0.01484375 3.34580078 -0.865625 3.33613281 -1.7421875 3.32617188 C-2.63164062 3.30103516 -3.52109375 3.27589844 -4.4375 3.25 C-5.3346875 3.23646484 -6.231875 3.22292969 -7.15625 3.20898438 C-9.37559789 3.17356925 -11.59375188 3.12418461 -13.8125 3.0625 C-13.4825 2.4025 -13.1525 1.7425 -12.8125 1.0625 C-8.60933254 -0.19607557 -4.34635395 -0.05406948 0 0 Z " fill="#3EEFBA" transform="translate(13.8125,16.9375)"/>
<path d="M0 0 C2.35964273 0.40683495 3.85934088 0.89814339 5.8125 2.3125 C7 4 7 4 6.875 6 C5.88213584 8.26940379 4.96211231 9.49068284 3 11 C2.01 11 1.02 11 0 11 C0.185625 10.113125 0.37125 9.22625 0.5625 8.3125 C0.98042484 5.14821189 0.80777742 3.05160358 0 0 Z " fill="#E9D0D6" transform="translate(38,15)"/>
<path d="M0 0 C-0.185625 1.0725 -0.37125 2.145 -0.5625 3.25 C-0.9304568 6.40391546 -1.04465343 8.09818492 0 11 C-2.35964273 10.59316505 -3.85934088 10.10185661 -5.8125 8.6875 C-7 7 -7 7 -6.875 5 C-5.27736681 1.348267 -4.05877292 0 0 0 Z " fill="#E9D0D6" transform="translate(26,15)"/>
<path d="M0 0 C0.99 0.33 1.98 0.66 3 1 C2.34 4.3 1.68 7.6 1 11 C-0.32 10.67 -1.64 10.34 -3 10 C-2.69201674 8.51988629 -2.378482 7.04092675 -2.0625 5.5625 C-1.88847656 4.73878906 -1.71445312 3.91507813 -1.53515625 3.06640625 C-1 1 -1 1 0 0 Z " fill="#E7D1D6" transform="translate(32,15)"/>
<path d="M0 0 C5.28 0 10.56 0 16 0 C12.0626889 2.95298333 10.73664753 3.8105341 6 4 C2.625 2.5625 2.625 2.5625 0 1 C0 0.67 0 0.34 0 0 Z " fill="#BEC0C6" transform="translate(24,35)"/>
<path d="M0 0 C1.65 0.33 3.3 0.66 5 1 C4.34 3.97 3.68 6.94 3 10 C1 10 1 10 -0.75 8.375 C-2 6 -2 6 -1.1875 2.75 C-0.795625 1.8425 -0.40375 0.935 0 0 Z " fill="#5DF0C4" transform="translate(26,16)"/>
<path d="M0 0 C3.375 0.9375 3.375 0.9375 6.375 3.9375 C1.425 3.9375 -3.525 3.9375 -8.625 3.9375 C-3.625 -0.0625 -3.625 -0.0625 0 0 Z " fill="#D694B4" transform="translate(57.625,38.0625)"/>
<path d="M0 0 C2.5 0.5 2.5 0.5 7.5 4.5 C2.55 4.5 -2.4 4.5 -7.5 4.5 C-2.5 0.5 -2.5 0.5 0 0 Z " fill="#D794B4" transform="translate(7.5,37.5)"/>
<path d="M0 0 C0.33 0.66 0.66 1.32 1 2 C5.95 2 10.9 2 16 2 C15.67 2.66 15.34 3.32 15 4 C9.39 4 3.78 4 -2 4 C-1.34 2.68 -0.68 1.36 0 0 Z " fill="#6CF2CB" transform="translate(44,22)"/>
<path d="M0 0 C0.99 0.66 1.98 1.32 3 2 C3 2.66 3 3.32 3 4 C-2.61 4 -8.22 4 -14 4 C-14.33 3.34 -14.66 2.68 -15 2 C-10.05 2 -5.1 2 0 2 C0 1.34 0 0.68 0 0 Z " fill="#6CF2CB" transform="translate(19,22)"/>
<path d="M0 0 C3 3.75 3 3.75 3 6 C1.02 6 -0.96 6 -3 6 C-2.625 3.5625 -2.625 3.5625 -2 1 C-1.34 0.67 -0.68 0.34 0 0 Z " fill="#4EEEBF" transform="translate(37,16)"/>
<path d="M0 0 C1.65 0 3.3 0 5 0 C4.34 1.32 3.68 2.64 3 4 C1.68 4 0.36 4 -1 4 C-0.67 2.68 -0.34 1.36 0 0 Z " fill="#68F1C8" transform="translate(34,22)"/>
<path d="M0 0 C1.65 0.33 3.3 0.66 5 1 C5 1.99 5 2.98 5 4 C3.02 4 1.04 4 -1 4 C-0.67 2.68 -0.34 1.36 0 0 Z " fill="#50ECBD" transform="translate(26,16)"/>
</svg>
